Patient4_TMGait_0pt6_01_left_27_EMG.mot
version=1
nRows=33
nColumns=33
inDegrees=no
endheader
time	1LAddLong	2LGlutMax	3LGlutMed	4LIliopsoas	5LSemiMemb	6LBicFemLong	7LRecFem	8LVastMed	9LVastLat	10LGasMed	11LTibAnt	12lTibPost	13LPeroneusLong	14LSol	15LExtDigLong	16LFlexDigLong	17RAddLong	18RGlutMax	19RGlutMed	20RIliopsoas	21RSemiMemb	22RBicFemLong	23RRecFem	24RVastMed	25RVastLat	26RGasMed	27RTibAnt	28RTibPost	29RPeroneusLong	30RSol	31RExtDigLong	32RFlexDigLong
32.87	0.006866	0.097809	-0.027771	-0.007172	-0.006714	-0.010681	0.068054	0.010834	0.18768	-0.05722	-0.029449	0.005493	0.10956	-0.28595	0.005341	-0.005035	-0.011902	-0.41214	-0.34698	0.007629	-0.043182	-0.16266	-0.035553	0.19257	0.12451	-0.004883	0.27695	-0.015411	-0.075989	-0.33554	-0.003357	-0.009155
32.871	0.012817	0.1329	-0.030518	0.010071	-0.010376	-0.024567	0.061035	0.01236	0.18768	-0.047302	0.016632	0.000153	0.052032	-0.1561	-0.017548	0.001678	0.009613	-0.42557	-0.15182	-0.045624	0.029907	-0.168	-0.16495	0.20309	-0.15793	0.000458	-0.095215	-0.018768	0.017242	-0.37323	-0.007935	0.001221
32.872	0.013733	0.13168	-0.032196	0.037384	-0.006409	-0.008392	0.046234	0.014801	0.19531	-0.047913	0.098877	0.00351	0.01358	0.002899	-0.040283	0.010376	0.005646	-0.36636	0.29159	-0.051575	0.088501	-0.16357	-0.26672	0.23438	-0.1297	-0.002136	-0.076599	-0.006256	0.09613	-0.13519	-0.00473	-0.00061
32.873	0.01236	0.15289	-0.011292	0.026093	0.023346	0.002136	0.056458	0.01236	0.17838	-0.006104	0.1593	0.007172	0.004425	0.004578	-0.10941	0.000305	-0.000153	-0.31815	0.46967	-0.12863	0.032196	-0.16266	-0.1088	0.027466	-0.082703	-0.013123	-0.20981	-0.001984	0.13107	0.20599	-0.003052	-0.000763
32.874	0.011749	0.14069	-0.014954	0.00412	0.014191	0.011444	0.054169	0.014648	0.17258	-0.01236	0.066376	0.007782	0.041351	0.038452	-0.11444	-0.001221	0.003815	-0.33569	0.27268	-0.19028	-0.031738	-0.16205	-0.19486	0.12604	0.2092	-0.011444	-0.45136	0.003815	0.10803	0.27924	-0.00824	-0.006561
32.875	0.011444	0.13382	-0.041199	0.00061	0.010681	-0.007019	0.044708	0.010529	0.16281	0.009003	-0.11475	0.001373	0.035858	0.09552	-0.072937	-0.001831	0.00473	-0.32013	-0.15701	-0.13031	-0.070953	-0.15152	-0.1973	0.043182	0.20905	-0.012207	-0.47333	0.001831	0.19287	0.18387	-0.009155	-0.00824
32.876	0.013733	0.16098	-0.030365	0.000305	-0.019226	-0.00824	0.039825	0.008545	0.17334	0.018768	-0.086975	0.003662	0.031738	0.19333	0.050354	0.000305	0.018158	-0.31616	-0.21652	-0.064545	-0.094147	-0.11475	-0.088959	-0.014954	0.10681	-0.010071	-0.27573	0.00351	0.1088	-0.041046	-0.00946	-0.008698
32.877	0.010834	0.15854	-0.028229	0.005493	-0.027618	-0.058594	0.042267	0.007172	0.18036	-0.10147	-0.1265	0.003052	0.10101	0.097504	0.08606	-0.001373	0.014801	-0.28473	-0.22919	0.084229	-0.12497	-0.08194	-0.029297	0.016937	0.041809	0.000458	-0.11688	0.00412	-0.059204	-0.20203	-0.007324	-0.00885
32.878	0.007172	0.15488	-0.044403	0.008698	0.001373	-0.051422	0.027313	0.008087	0.17364	-0.076599	-0.089722	0.003662	0.12405	-0.13031	0.07431	0.005646	0.003052	-0.29877	-0.066223	0.19486	-0.081482	-0.058746	-0.023346	0.050964	0.03006	-0.001678	-0.026398	-0.001221	-0.11169	-0.32257	-0.017242	-0.003662
32.879	0.00946	0.19287	-0.077209	-0.009155	-0.005341	-0.043488	0.03418	0.008698	0.15869	-0.0177	0.042572	0.002594	0.02182	-0.16693	0.11475	0.002441	-0.002289	-0.29159	0.095978	0.26199	-0.10193	-0.008698	0.044556	0.15259	0.02243	-0.004272	0.009766	-0.019379	-0.23224	-0.32257	-0.010681	-0.01358
32.88	0.005493	0.19165	-0.097809	-0.000916	0.005798	-0.051727	0.032349	0.007477	0.17792	-0.01236	0.062408	0.006866	0.029449	0.002899	0.076752	-0.007782	0.007172	-0.23911	0.13229	0.14008	-0.006561	-0.012817	0.046234	0.070343	-0.025635	-0.001678	0.015869	-0.025024	0.000458	-0.24338	-0.009613	-0.01297
32.881	0.008087	0.18829	-0.11368	0.008545	-0.010529	-0.082397	0.033112	0.003815	0.15503	-0.029755	0.040894	0.009613	0.036774	-0.041962	-0.000458	-0.013123	0.019989	-0.18372	0.44754	0.069885	0.023041	-0.05188	-0.009308	0.02533	-0.052643	0.012817	0.079193	-0.032654	0.2536	-0.31738	-0.006409	-0.016022
32.882	0.007324	0.17624	-0.06897	0	0.009613	-0.068207	0.028381	0.009766	0.16022	-0.014496	0.026093	0.005188	0.026093	-0.17014	-0.049133	0.001373	0.02594	-0.17395	0.1532	-0.00473	-0.015717	-0.004272	0.016174	0.003662	-0.043793	0.012512	0.086365	-0.028687	0.29358	0.025635	-0.012817	-0.016174
32.883	-0.000153	0.15656	-0.025482	0.007477	0.013733	-0.058899	0.029755	0.01358	0.15518	-0.025177	0.02655	0.011902	0.030365	-0.1886	-0.032654	0.032501	0.030212	-0.17364	0.10483	-0.036011	-0.098267	0.039673	-0.021515	0.016937	-0.012512	0.028534	-0.29923	-0.022736	0.2623	0.10925	-0.014496	-0.017242
32.884	-0.001831	0.18814	-0.005035	0.001831	0.018616	-0.035248	0.022278	0.009308	0.14008	-0.018616	0.019073	0.006866	0.027161	-0.06424	-0.00473	-0.080261	0.018921	-0.10025	0.091248	0.001984	-0.14938	0.046082	-0.007935	-0.007019	0.035553	-0.012054	-0.23346	0.010376	-0.12985	-0.010986	-0.013733	-0.014648
32.885	0	0.19684	0.008392	0.009613	-0.014954	-0.037079	0.021362	0.006409	0.14969	-0.013123	0.029602	0.006866	0.037994	0.001526	-0.001373	-0.084686	-0.010681	-0.10162	0.057831	0.013123	-0.20447	0.032654	0.040131	0.006104	0.025635	-0.072937	0.000916	0.023193	-0.036621	-0.4715	-0.014648	-0.014648
32.886	0.004883	0.19134	-0.007782	0.00412	-0.032959	-0.053101	0.030365	0.013733	0.14923	-0.005341	0.014496	0.015869	0.038757	0.059052	0.001373	-0.010681	-0.006714	-0.082397	0.46631	-0.003204	-0.052948	0.000305	0.13977	-0.009918	-0.035706	-0.10315	0.090027	-0.016632	-0.06012	-0.95245	-0.014038	-0.020447
32.887	0.011597	0.19302	-0.010223	0.003815	-0.048676	-0.077667	0.006256	0.011139	0.13382	-0.008698	0.019836	0.007477	0.059509	0.1091	-0.010376	0.052795	0.007782	0.014191	0.44861	0.035706	0.04425	-0.014343	0.20523	-0.018921	-0.059662	-0.11261	0.007629	-0.072479	-0.069275	-0.47226	-0.018616	-0.013123
32.888	0.009308	0.22201	-0.017395	0.001221	-0.062561	-0.11002	0.01358	0.018005	0.13992	-0.010986	0.03067	0.00473	0.10193	0.072021	-0.022278	0.020599	0.007629	0.029144	0.087738	0.033264	0.034637	0.017395	0.22369	-0.032501	-0.054932	-0.079498	-0.13809	-0.11551	0.016937	0.12207	-0.01297	-0.010376
32.889	0.021362	0.19089	-0.039825	0.00351	-0.002594	-0.14206	0.006256	0.00824	0.14435	-0.025024	0.023804	0.013275	0.066681	0.016937	-0.007782	0.02594	0.012512	-0.007324	-0.25452	0.053101	-0.011902	0.026245	0.23407	-0.045929	-0.07019	0.018005	-0.13473	-0.045471	0.082703	1.2779	-0.013428	0.00061
32.89	0.019836	0.18768	-0.029602	0.017853	0.076294	-0.12787	0.011139	0.009003	0.12817	-0.040131	0.029907	0.012512	-0.006409	0.020142	0.035858	0.013123	0.007019	-0.046387	0.21316	-0.049286	0.019836	0.029449	0.16739	-0.040131	-0.093079	-0.008392	-0.087891	0.10193	0.042725	1.6341	-0.017395	0.001984
32.891	0.0177	0.2034	-0.015106	0.011749	0.066986	-0.098572	0.013733	0.006561	0.12695	-0.039215	0.026245	0.016022	0.018921	-0.046082	0.037842	-0.002289	-0.015869	-0.081024	0.30441	-0.081177	0.05249	0.045166	0.032043	-0.09903	-0.015869	-0.059204	0.21271	0.11688	-0.051727	0.74554	-0.020447	-0.00473
32.892	0.014038	0.24948	0.000763	0.000153	0.018616	-0.091095	0.006409	0.014191	0.12756	-0.034332	0.024414	0.00946	0.085907	-0.097961	0.023499	-0.000153	-0.019836	0.005035	0.039368	-0.038605	0.025482	0.069733	-0.28519	-0.16373	0.2829	-0.000305	0.31082	0.097198	-0.0737	0.09964	-0.023193	0.004578
32.893	0.010071	0.20813	-0.000305	0.011444	0.009308	-0.09552	0.007477	0.011292	0.12329	-0.039368	0.033112	0.012207	0.095825	-0.018921	0.014191	0.011902	0.006714	0.023651	0.13748	-0.031128	0.011597	0.043793	0.026855	-0.23911	0.46799	0.053864	0.33569	0.036469	0.055389	-0.35889	-0.020142	0.005341
32.894	0.018158	0.2092	-0.022125	0.003357	0.012054	-0.11536	0.018158	0.007629	0.10025	-0.024567	0.031433	0.015411	0.049896	0.006256	0.006866	0.00412	0.026398	0.009766	0.01709	-0.00412	-0.019684	0.038452	0.10864	-0.2121	0.39993	0.012512	0.13458	-0.005341	0.063782	-0.51117	-0.019684	0.000153
32.895	0.014191	0.22766	-0.035706	0.007477	0.008087	-0.10086	-0.001526	0.00412	0.10178	-0.016327	0.020294	0.014648	0.056305	0.010071	-0.003815	-0.001678	0.007629	0.028992	0.010834	-0.003815	-0.016022	0.071411	0.011749	-0.16312	0.28839	0.016022	-0.25055	0.013733	0.010376	-0.28091	-0.017548	-0.004272
32.896	0.018768	0.2095	-0.041962	0.015411	0.011597	-0.09552	0.024719	0.005951	0.10407	-0.0177	0.021667	0.017548	0.032501	0.025787	-0.007019	0.002289	-0.006104	0.057068	-0.13504	-0.003662	-0.002747	0.11505	0.025635	0.10147	0.19867	0.01358	-0.44449	0.009308	0.27451	-0.40756	-0.01709	-0.007629
32.897	0.066986	0.1973	-0.058441	0.006866	0.011597	-0.10529	0.021973	0.012817	0.090027	-0.022736	0.005188	0.018005	0.016632	0.009918	-0.019226	-0.01297	-0.00946	0.031281	0.032806	0.025787	0.012817	0.14297	-0.10483	0.2359	0.10849	-0.070648	-0.017242	-0.018005	0.21652	-0.55893	-0.017548	-0.010223
32.898	0.086823	0.20157	-0.090332	0.007172	0.015564	-0.10529	0.016327	0.006714	0.096588	-0.030975	0.025787	0.016632	0.023804	0.071106	-0.006256	0.011139	-0.001373	0.014191	-0.16159	0.10437	-0.006561	0.12756	-0.023346	0.30395	-0.26627	0.037842	0.14603	-0.046997	0.086823	-0.3096	-0.020447	-0.009613
32.899	0.058594	0.20554	-0.11353	0.007172	0.005493	-0.1004	0.010834	-0.001984	0.076752	-0.043182	0.018463	0.020447	0.018616	0.097198	0.00061	-0.005798	-0.002136	0.053558	0.16861	0.067139	-0.016327	0.10483	-0.076599	0.11917	-0.65277	0.043182	0.4277	0.003204	-0.046234	0.11627	-0.021973	-0.013885
32.9	0.043182	0.19653	-0.11108	0.003815	0.002747	-0.10696	0.023346	-0.000305	0.081635	-0.033264	0.020142	0.020447	0.023956	0.094757	-0.011139	-0.001678	-0.007019	0.042267	0.14618	0.020752	-0.027008	0.054016	-0.086975	0.11627	-0.72479	0.015106	0.091248	0.008545	-0.20218	-0.021973	-0.018005	-0.011749
32.901	0.007477	0.20737	-0.04837	-0.000153	0.020905	-0.098724	0.007629	0.005646	0.08194	-0.047455	0.02533	0.011444	0.061188	0.072784	-0.010529	0.005341	-0.000916	0.048218	0.58792	0.002747	-0.010834	0.077362	-0.36743	0.14114	-0.18356	0.0383	-0.31876	-0.022888	-0.28732	-0.23651	-0.018158	-0.012054
32.902	0.011139	0.1796	0.024109	-0.005646	0.0177	-0.085754	0.032806	0.00824	0.070648	-0.041809	0.014343	0.017853	0.057831	-0.06897	-0.032959	-0.011292	0.030518	0.014954	-0.048981	0.014191	-0.053253	0.057526	-0.64667	0.10025	-0.036469	0.05127	-0.33646	-0.034332	0.009918	-0.44006	-0.019073	-0.007477
